<svg id="visual" viewBox="0 0 900 600" width="900" height="600" xmlns="http://www.w3.org/2000/svg" xmlns:xlink="http://www.w3.org/1999/xlink" version="1.1"><rect x="0" y="0" width="900" height="600" fill="#001220"></rect><defs><linearGradient id="grad1_0" x1="33.3%" y1="100%" x2="100%" y2="0%"><stop offset="20%" stop-color="#001220" stop-opacity="1"></stop><stop offset="80%" stop-color="#001220" stop-opacity="1"></stop></linearGradient></defs><defs><linearGradient id="grad2_0" x1="0%" y1="100%" x2="66.7%" y2="0%"><stop offset="20%" stop-color="#001220" stop-opacity="1"></stop><stop offset="80%" stop-color="#001220" stop-opacity="1"></stop></linearGradient></defs><g transform="translate(900, 600)"><path d="M-432.7 0C-421.8 -76.5 -411 -153 -374.7 -216.3C-338.4 -279.7 -276.7 -329.9 -210 -363.7C-143.3 -397.6 -71.7 -415.1 0 -432.7L0 0Z" fill="#A020F0"></path></g><g transform="translate(0, 0)"><path d="M432.7 0C431.9 93.9 431.1 187.9 374.7 216.3C318.3 244.8 206.2 207.8 134.5 233C62.8 258.1 31.4 345.4 0 432.7L0 0Z" fill="#A020F0"></path></g></svg>